<?xml version="1.0" encoding="utf-8"?>
<!-- Generator: Adobe Illustrator 26.0.2, SVG Export Plug-In . SVG Version: 6.00 Build 0)  -->
<svg version="1.1" id="レイヤー_1" xmlns="http://www.w3.org/2000/svg" xmlns:xlink="http://www.w3.org/1999/xlink" x="0px"
	 y="0px" width="495px" height="108px" viewBox="0 0 495 108" enable-background="new 0 0 495 108" xml:space="preserve">
<g>
	
		<rect x="32.86" y="38.51" transform="matrix(-1.836970e-16 1 -1 -1.836970e-16 129.0259 38.513)" fill="#43554C" width="24.78" height="90.51"/>
	<rect x="65.73" y="9.05" fill="#4DAA7D" width="24.78" height="90.51"/>
	
		<rect x="32.86" y="-20.51" transform="matrix(-1.836970e-16 1 -1 -1.836970e-16 70 -20.513)" fill="#43554C" width="24.78" height="90.51"/>
	<rect y="9" fill="#4DAA7D" width="24.78" height="90.51"/>
	
		<rect x="32.86" y="9" transform="matrix(-1.836970e-16 1 -1 -1.836970e-16 99.5129 9)" fill="#3DD58B" width="24.78" height="90.51"/>
	
		<rect x="0" y="71.38" transform="matrix(-1.836970e-16 1 -1 -1.836970e-16 96.1614 71.3774)" fill="#43554C" width="24.78" height="24.78"/>
	<rect x="32.86" y="9" fill="#3DD58B" width="24.78" height="90.51"/>
</g>
<path fill="#43554C" d="M99,81V27h7.88v54H99z M127.53,81l-20.5-27.22L127.53,27h9.71l-21.09,26.78L137.24,81H127.53z"/>
<g>
	<path fill="#3DD58B" d="M223.55,80.31V36.15h15.34c13.37,0,21.54,10.56,21.54,22.08c0,13.49-8.53,22.08-22.5,22.08H223.55z
		 M237.7,74.4c10.2,0,16.29-5.97,16.29-16.05c0-9.91-6.98-16.29-15.99-16.29h-8V74.4H237.7z"/>
	<path fill="#3DD58B" d="M292.6,79.47v-5.13h-0.12c-2.33,3.94-6.51,5.97-11.22,5.97c-9.67,0-17.55-7.28-17.55-16.83
		c0-10.56,7.58-17.96,17.31-17.96c4.83,0,8.89,1.79,11.46,5.55h0.12v-4.66h6.21v33.06H292.6z M292.72,63
		c0-6.44-4.65-11.82-11.52-11.82c-6.21,0-11.28,5.31-11.28,11.82c0,6.21,5.07,11.64,11.28,11.64
		C287.65,74.64,292.72,69.27,292.72,63z"/>
	<path fill="#3DD58B" d="M307.52,80.31V52.92h-4.48v-5.67h4.48v-11.1h6.21v11.1h5.43v5.67h-5.43v27.39H307.52z"/>
	<path fill="#3DD58B" d="M348.59,79.47v-5.13h-0.12c-2.33,3.94-6.5,5.97-11.22,5.97c-9.67,0-17.55-7.28-17.55-16.83
		c0-10.56,7.58-17.96,17.31-17.96c4.84,0,8.89,1.79,11.46,5.55h0.12v-4.66h6.21v33.06H348.59z M348.7,63
		c0-6.44-4.65-11.82-11.52-11.82c-6.21,0-11.28,5.31-11.28,11.82c0,6.21,5.07,11.64,11.28,11.64C343.63,74.64,348.7,69.27,348.7,63z
		"/>
	<path fill="#3DD58B" d="M360.89,79.47V35.31h6.21V51h0.12c2.69-3.64,6.86-5.49,11.34-5.49c9.37,0,17.13,7.88,17.13,17.43
		c0,9.25-7.28,17.37-16.59,17.37c-4.77,0-9.19-1.91-11.94-5.61h-0.12v4.78H360.89z M389.47,62.94c0-6.27-4.95-11.76-11.34-11.76
		c-6.15,0-11.22,5.37-11.22,11.64c0,6.56,4.95,11.82,11.28,11.82C384.28,74.64,389.47,69.39,389.47,62.94z"/>
	<path fill="#3DD58B" d="M427.19,79.47v-5.13h-0.12c-2.33,3.94-6.51,5.97-11.22,5.97c-9.67,0-17.55-7.28-17.55-16.83
		c0-10.56,7.58-17.96,17.31-17.96c4.83,0,8.89,1.79,11.46,5.55h0.12v-4.66h6.21v33.06H427.19z M427.31,63
		c0-6.44-4.65-11.82-11.52-11.82c-6.21,0-11.28,5.31-11.28,11.82c0,6.21,5.07,11.64,11.28,11.64
		C422.24,74.64,427.31,69.27,427.31,63z"/>
	<path fill="#3DD58B" d="M452.5,55.18c-0.3-2.39-1.67-4-4.24-4c-2.39,0-3.88,1.61-3.88,3.52c0,2.81,2.86,3.64,6.15,4.66
		c4.66,1.43,8.95,4.24,8.95,10.38c0,6.39-4.65,10.57-11.1,10.57c-5.97,0-11.7-4.06-11.7-11.7h6.21c0.3,4,2.33,6.03,5.61,6.03
		c2.86,0,4.77-1.85,4.77-4.54c0-2.27-1.73-3.76-5.61-5.01c-8.12-2.57-9.49-6.09-9.49-9.85c0-5.85,4.95-9.73,10.38-9.73
		c5.49,0,9.97,3.82,10.15,9.67H452.5z"/>
	<path fill="#3DD58B" d="M467.43,65.63c1.43,5.49,5.79,9.01,10.86,9.01c3.88,0,7.52-2.03,9.43-5.55h6.21
		c-2.57,6.8-8.77,11.22-15.87,11.22c-9.31,0-16.83-8.24-16.83-17.07c0-10.44,7.88-17.72,16.65-17.72c9.73,0,17.13,7.52,17.13,17.01
		c0,1.01,0,1.97-0.18,3.1H467.43z M488.79,60.85c-0.48-5.61-5.43-9.67-10.74-9.67c-5.07,0-10.15,4-10.62,9.67H488.79z"/>
</g>
<path fill="#43554C" d="M138.61,81V37.9h14.97c13.05,0,21.02,10.31,21.02,21.55c0,13.16-8.33,21.55-21.96,21.55H138.61z
	 M152.41,75.23c9.96,0,15.9-5.82,15.9-15.67c0-9.67-6.81-15.9-15.61-15.9h-7.81v31.57H152.41z"/>
<path fill="#43554C" d="M203.49,81l-10.71-16.42L181.94,81h-7.34l14.27-21.61L174.6,37.9h7.51l10.66,16.31l10.77-16.31H211
	l-14.38,21.49L210.88,81H203.49z"/>
</svg>
