<?xml version="1.0" encoding="utf-8"?>
<!-- Generator: Adobe Illustrator 26.0.2, SVG Export Plug-In . SVG Version: 6.00 Build 0)  -->
<svg version="1.1" id="logo" xmlns="http://www.w3.org/2000/svg" xmlns:xlink="http://www.w3.org/1999/xlink" x="0px" y="0px"
	 width="270px" height="72px" viewBox="0 0 270 72" enable-background="new 0 0 270 72" xml:space="preserve">
<rect x="23.33" y="25.15" transform="matrix(-1.836970e-16 1 -1 -1.836970e-16 88.1496 24.434)" fill="#43554C" width="17.05" height="62.28"/>
<rect x="45.95" y="4.87" fill="#4DAA7D" width="17.05" height="62.28"/>
<rect x="23.33" y="-15.47" transform="matrix(-1.836970e-16 1 -1 -1.836970e-16 47.5322 -16.1833)" fill="#43554C" width="17.05" height="62.28"/>
<rect x="0.72" y="4.84" fill="#4DAA7D" width="17.05" height="62.28"/>
<rect x="23.33" y="4.84" transform="matrix(-1.836970e-16 1 -1 -1.836970e-16 67.8409 4.1253)" fill="#3DD58B" width="17.05" height="62.28"/>
<rect x="5.33" y="43.15" transform="matrix(-1.836970e-16 1 -1 -1.836970e-16 70.1496 42.434)" fill="#43554C" width="17.05" height="26.28"/>
<rect x="23.33" y="4.84" fill="#3DD58B" width="17.05" height="62.28"/>
<g>
	<path d="M72,50.45V21.24h4.26v29.21H72z M87.43,50.45L76.34,35.73l11.09-14.49h5.25L81.28,35.73l11.41,14.73H87.43z"/>
	<g>
		<path fill="#3DD58B" d="M132.46,50.45V28.27h7.7c6.72,0,10.82,5.31,10.82,11.09c0,6.77-4.29,11.09-11.3,11.09H132.46z
			 M139.56,47.48c5.13,0,8.18-3,8.18-8.06c0-4.98-3.51-8.18-8.03-8.18h-4.02v16.25H139.56z"/>
		<path fill="#3DD58B" d="M167.15,50.03v-2.58h-0.06c-1.17,1.98-3.27,3-5.64,3c-4.86,0-8.81-3.66-8.81-8.45
			c0-5.31,3.81-9.02,8.69-9.02c2.43,0,4.47,0.9,5.76,2.79h0.06v-2.34h3.12v16.61H167.15z M167.21,41.76c0-3.24-2.34-5.94-5.79-5.94
			c-3.12,0-5.67,2.67-5.67,5.94c0,3.12,2.55,5.85,5.67,5.85C164.66,47.6,167.21,44.9,167.21,41.76z"/>
		<path fill="#3DD58B" d="M174.64,50.45V36.69h-2.25v-2.85h2.25v-5.58h3.12v5.58h2.73v2.85h-2.73v13.76H174.64z"/>
		<path fill="#3DD58B" d="M195.27,50.03v-2.58h-0.06c-1.17,1.98-3.27,3-5.64,3c-4.86,0-8.81-3.66-8.81-8.45
			c0-5.31,3.81-9.02,8.69-9.02c2.43,0,4.47,0.9,5.76,2.79h0.06v-2.34h3.12v16.61H195.27z M195.33,41.76c0-3.24-2.34-5.94-5.79-5.94
			c-3.12,0-5.67,2.67-5.67,5.94c0,3.12,2.55,5.85,5.67,5.85C192.78,47.6,195.33,44.9,195.33,41.76z"/>
		<path fill="#3DD58B" d="M201.45,50.03V27.85h3.12v7.88h0.06c1.35-1.83,3.45-2.76,5.7-2.76c4.71,0,8.6,3.96,8.6,8.75
			c0,4.65-3.66,8.72-8.33,8.72c-2.4,0-4.62-0.96-6-2.82h-0.06v2.4H201.45z M215.81,41.73c0-3.15-2.49-5.91-5.7-5.91
			c-3.09,0-5.64,2.7-5.64,5.85c0,3.3,2.49,5.94,5.67,5.94C213.2,47.6,215.81,44.96,215.81,41.73z"/>
		<path fill="#3DD58B" d="M234.76,50.03v-2.58h-0.06c-1.17,1.98-3.27,3-5.64,3c-4.86,0-8.81-3.66-8.81-8.45
			c0-5.31,3.81-9.02,8.69-9.02c2.43,0,4.47,0.9,5.76,2.79h0.06v-2.34h3.12v16.61H234.76z M234.82,41.76c0-3.24-2.34-5.94-5.79-5.94
			c-3.12,0-5.67,2.67-5.67,5.94c0,3.12,2.55,5.85,5.67,5.85C232.27,47.6,234.82,44.9,234.82,41.76z"/>
		<path fill="#3DD58B" d="M247.47,37.83c-0.15-1.2-0.84-2.01-2.13-2.01c-1.2,0-1.95,0.81-1.95,1.77c0,1.41,1.44,1.83,3.09,2.34
			c2.34,0.72,4.5,2.13,4.5,5.22c0,3.21-2.34,5.31-5.58,5.31c-3,0-5.88-2.04-5.88-5.88h3.12c0.15,2.01,1.17,3.03,2.82,3.03
			c1.44,0,2.4-0.93,2.4-2.28c0-1.14-0.87-1.89-2.82-2.52c-4.08-1.29-4.77-3.06-4.77-4.95c0-2.94,2.49-4.89,5.22-4.89
			c2.76,0,5.01,1.92,5.1,4.86H247.47z"/>
		<path fill="#3DD58B" d="M254.97,43.07c0.72,2.76,2.91,4.53,5.46,4.53c1.95,0,3.78-1.02,4.74-2.79h3.12
			c-1.29,3.42-4.41,5.64-7.97,5.64c-4.68,0-8.45-4.14-8.45-8.57c0-5.25,3.96-8.9,8.36-8.9c4.89,0,8.6,3.78,8.6,8.54
			c0,0.51,0,0.99-0.09,1.56H254.97z M265.7,40.68c-0.24-2.82-2.73-4.86-5.4-4.86c-2.55,0-5.1,2.01-5.34,4.86H265.7z"/>
	</g>
	<path d="M92.68,50.41V28.79h6.4c2.6,0,5.23,0.64,7.16,1.9c2.92,1.93,4.71,5.38,4.71,9.03c0,2.69-1.02,5.29-3.13,7.45
		c-2.1,2.19-5.17,3.24-8.83,3.24H92.68z M98.82,48.46c3.6,0,5.99-0.94,7.57-2.6c1.64-1.75,2.4-4,2.4-6.25
		c0-2.81-1.17-5.26-3.45-7.01c-1.52-1.17-3.83-1.84-6.61-1.84h-3.89v17.71H98.82z"/>
	<path d="M124.02,50.76l-6.08-9.24l-6.17,9.24h-2.54l7.34-11.05l-6.93-10.58h2.54l5.76,8.65l5.7-8.65h2.51l-6.96,10.58l7.39,11.05
		H124.02z"/>
</g>
</svg>
