<?xml version="1.0" encoding="utf-8"?>
<!-- Generator: Adobe Illustrator 26.0.2, SVG Export Plug-In . SVG Version: 6.00 Build 0)  -->
<svg version="1.1" id="logo" xmlns="http://www.w3.org/2000/svg" xmlns:xlink="http://www.w3.org/1999/xlink" x="0px" y="0px"
	 width="283.63px" height="72px" viewBox="0 0 283.63 72" enable-background="new 0 0 283.63 72" xml:space="preserve">
<g>
	
		<rect x="20.6" y="26.6" transform="matrix(-1.836970e-16 1 -1 -1.836970e-16 81.5686 25.5979)" fill="#43554C" width="14.78" height="53.97"/>
	<rect x="40.19" y="9.03" fill="#4DAA7D" width="14.78" height="53.97"/>
	
		<rect x="20.6" y="-8.6" transform="matrix(-1.836970e-16 1 -1 -1.836970e-16 46.3728 -9.5979)" fill="#43554C" width="14.78" height="53.97"/>
	<rect x="1" y="9" fill="#4DAA7D" width="14.78" height="53.97"/>
	
		<rect x="20.6" y="9" transform="matrix(-1.836970e-16 1 -1 -1.836970e-16 63.9707 8)" fill="#3DD58B" width="14.78" height="53.97"/>
	
		<rect x="5" y="42.2" transform="matrix(-1.836970e-16 1 -1 -1.836970e-16 65.9712 41.1952)" fill="#43554C" width="14.78" height="22.78"/>
	<rect x="20.6" y="9" fill="#3DD58B" width="14.78" height="53.97"/>
</g>
<g>
	<path fill="#3DD58B" d="M132.51,54V29.55H141c7.4,0,11.93,5.85,11.93,12.22c0,7.47-4.72,12.22-12.45,12.22H132.51z M140.34,50.73
		c5.65,0,9.02-3.3,9.02-8.89c0-5.48-3.87-9.02-8.85-9.02h-4.43v17.9H140.34z"/>
	<path fill="#3DD58B" d="M170.73,53.54V50.7h-0.07c-1.29,2.18-3.6,3.3-6.21,3.3c-5.35,0-9.71-4.03-9.71-9.32
		c0-5.85,4.2-9.94,9.58-9.94c2.68,0,4.92,0.99,6.34,3.07h0.07v-2.58h3.44v18.3H170.73z M170.8,44.42c0-3.57-2.58-6.54-6.38-6.54
		c-3.44,0-6.24,2.94-6.24,6.54c0,3.44,2.81,6.44,6.24,6.44C167.99,50.86,170.8,47.89,170.8,44.42z"/>
	<path fill="#3DD58B" d="M178.99,54V38.84h-2.48V35.7h2.48v-6.14h3.44v6.14h3.01v3.14h-3.01V54H178.99z"/>
	<path fill="#3DD58B" d="M201.72,53.54V50.7h-0.07c-1.29,2.18-3.6,3.3-6.21,3.3c-5.35,0-9.71-4.03-9.71-9.32
		c0-5.85,4.2-9.94,9.58-9.94c2.68,0,4.92,0.99,6.34,3.07h0.07v-2.58h3.44v18.3H201.72z M201.79,44.42c0-3.57-2.58-6.54-6.38-6.54
		c-3.44,0-6.24,2.94-6.24,6.54c0,3.44,2.81,6.44,6.24,6.44C198.98,50.86,201.79,47.89,201.79,44.42z"/>
	<path fill="#3DD58B" d="M208.53,53.54V29.09h3.44v8.69h0.07c1.49-2.02,3.8-3.04,6.28-3.04c5.19,0,9.48,4.36,9.48,9.65
		c0,5.12-4.03,9.61-9.18,9.61c-2.64,0-5.09-1.06-6.61-3.11h-0.07v2.64H208.53z M224.35,44.39c0-3.47-2.74-6.51-6.28-6.51
		c-3.4,0-6.21,2.97-6.21,6.44c0,3.63,2.74,6.54,6.24,6.54C221.48,50.86,224.35,47.95,224.35,44.39z"/>
	<path fill="#3DD58B" d="M245.23,53.54V50.7h-0.07c-1.29,2.18-3.6,3.3-6.21,3.3c-5.35,0-9.71-4.03-9.71-9.32
		c0-5.85,4.2-9.94,9.58-9.94c2.68,0,4.92,0.99,6.34,3.07h0.07v-2.58h3.44v18.3H245.23z M245.3,44.42c0-3.57-2.58-6.54-6.38-6.54
		c-3.44,0-6.24,2.94-6.24,6.54c0,3.44,2.81,6.44,6.24,6.44C242.49,50.86,245.3,47.89,245.3,44.42z"/>
	<path fill="#3DD58B" d="M259.24,40.09c-0.16-1.32-0.92-2.21-2.35-2.21c-1.32,0-2.15,0.89-2.15,1.95c0,1.55,1.59,2.02,3.4,2.58
		c2.58,0.79,4.96,2.35,4.96,5.75c0,3.54-2.58,5.85-6.14,5.85c-3.3,0-6.48-2.25-6.48-6.48h3.44c0.17,2.21,1.29,3.34,3.11,3.34
		c1.59,0,2.64-1.02,2.64-2.51c0-1.26-0.96-2.08-3.11-2.78c-4.49-1.42-5.25-3.37-5.25-5.45c0-3.24,2.74-5.38,5.75-5.38
		c3.04,0,5.52,2.11,5.62,5.35H259.24z"/>
	<path fill="#3DD58B" d="M267.51,45.87c0.79,3.04,3.2,4.99,6.01,4.99c2.15,0,4.16-1.12,5.22-3.07h3.44
		c-1.42,3.77-4.86,6.21-8.79,6.21c-5.15,0-9.32-4.56-9.32-9.45c0-5.78,4.36-9.81,9.22-9.81c5.38,0,9.48,4.16,9.48,9.41
		c0,0.56,0,1.09-0.1,1.72H267.51z M279.33,43.23c-0.26-3.11-3.01-5.35-5.95-5.35c-2.81,0-5.62,2.21-5.88,5.35H279.33z"/>
</g>
<g>
	<path d="M62.71,54V23.5h4.45V54H62.71z M78.82,54L67.24,38.63L78.82,23.5h5.48L72.39,38.63L84.31,54H78.82z"/>
	<path d="M84.14,54V29.09h8.65c7.54,0,12.15,5.96,12.15,12.45c0,7.61-4.81,12.45-12.69,12.45H84.14z M92.12,50.67
		c5.76,0,9.19-3.37,9.19-9.06c0-5.59-3.94-9.19-9.02-9.19h-4.51v18.24H92.12z"/>
	<path d="M121.01,54l-6.19-9.49L108.55,54h-4.24l8.25-12.49l-8.25-12.42h4.34l6.16,9.43l6.23-9.43h4.31l-8.31,12.42L125.28,54
		H121.01z"/>
</g>
</svg>
